<?xml version="1.0" encoding="utf-8"?>
<!-- Generator: Adobe Illustrator 26.2.1, SVG Export Plug-In . SVG Version: 6.00 Build 0)  -->
<svg version="1.1" id="Layer_1" xmlns="http://www.w3.org/2000/svg" xmlns:xlink="http://www.w3.org/1999/xlink" x="0px" y="0px"
	 viewBox="0 0 1500 1500" style="enable-background:new 0 0 1500 1500;" xml:space="preserve">
<style type="text/css">
	.st0{fill:#FFFFFF;}
	.st1{fill:#36716F;}
</style>
<circle class="st0" cx="750" cy="750" r="700"/>
<circle class="st1" cx="750" cy="750" r="618.7"/>
<g>
	<path class="st0" d="M1032.2,293.4c11.6,6.6,24.9,14.9,40.6,24.9c14.9,10.8,26.5,20.7,35.6,30.7c8.3,9.9,12.4,22.4,12.4,35.6
		c0,7.5-4.1,14.9-12.4,19.9c-8.3,5-14.9,8.3-21.5,8.3c-12.4,0-29.8-3.3-53-8.3c-22.4-5-43.9-12.4-64.6-19.9
		c-24-5.8-49.7-10.8-76.2-14.1s-52.2-5-76.2-5c-17.4,0-36.5,0.8-53.9,4.1c-17.4,2.5-38.1,6.6-60.5,13.3c-8.3,3.3-27.3,9.1-58.8,19.9
		c-32.3,9.9-57.2,20.7-74.6,29.8c-15.7,9.1-26.5,16.6-34.8,21.5c-9.9,5-19.1,8.3-28.2,8.3c-12.4,0-24.9-9.1-38.1-29
		c-14.1-19.9-29-49.7-48.9-90.3v-10.8c15.7,6.6,29.8,10.8,42.3,14.1c11.6,3.3,24.9,4.1,38.1,4.1c9.9,0,28.2-1.7,55.5-7.5
		c25.7-5,54.7-9.9,84.5-17.4c29.8-8.3,66.3-15.7,108.6-20.7c43.1-5,77.9-8.3,106.1-8.3c24,0,46.4-0.8,68-1.7
		c22.4-1.7,39.8-3.3,53-5.8c9.1-2.5,19.9-4.1,29-4.1C1011.5,285.1,1020.6,288.4,1032.2,293.4z"/>
	<path class="st0" d="M833.3,495.1c25.7,7.5,38.1,16.6,38.1,28.2c0,9.1-4.1,17.4-12.4,24.9c-8.3,7.5-19.9,13.3-34,19.9
		c-14.9,7.5-29,12.4-43.9,17.4c-14.1,5-33.1,11.6-56.4,17.4c16.6,3.3,30.7,8.3,42.3,16.6c11.6,8.3,16.6,16.6,16.6,26.5
		c0,4.1-0.8,10.8-3.3,22.4c-3.3,11.6-4.1,20.7-4.1,27.3c15.7-14.9,29.8-29,42.3-43.9c11.6-14.1,18.2-24,18.2-26.5
		c0-3.3-1.7-7.5-3.3-10.8c-3.3-3.3-6.6-8.3-11.6-14.1l4.1-4.1c27.3,0.8,52.2,5,73.8,13.3c21.5,8.3,33.1,16.6,33.1,24.9
		c0,9.1-3.3,16.6-10.8,22.4c-6.6,6.6-17.4,12.4-29,19.9c-12.4,7.5-21.5,13.3-29,16.6c-6.6,4.1-14.1,8.3-21.5,13.3
		c-7.5,5.8-14.1,9.9-21.5,12.4c-7.5,4.1-14.9,8.3-20.7,11.6c15.7-1.7,37.3-5,65.5-9.9c27.3-5.8,45.6-7.5,52.2-7.5
		c9.9,0,19.1,0.8,30.7,3.3c9.9,2.5,21.5,6.6,33.1,12.4c10.8,5,20.7,10.8,29,17.4c6.6,7.5,10.8,14.1,10.8,21.5
		c0,6.6-4.1,11.6-13.3,15.7c-9.1,4.1-20.7,5.8-32.3,5.8c-9.9,0-29-1.7-56.4-5c-28.2-3.3-48.9-5-62.2-5c-9.9,0-18.2,0-27.3,0.8
		c-9.1,0.8-17.4,2.5-24.9,3.3c31.5,33.1,66.3,63.8,106.9,92c40.6,29,82.9,54.7,128.4,78.7l150.8,74.6l-27.3,19.1
		c-20.7,4.1-41.4,6.6-62.2,8.3c-22.4,1.7-43.9,2.5-68,2.5c-17.4,0-33.1-0.8-46.4-4.1c-13.3-2.5-25.7-6.6-37.3-12.4
		c-5,14.1-12.4,37.3-21.5,72.1c-10.8,34-19.1,62.2-25.7,83.7c-7.5,21.5-14.1,38.9-20.7,53.9c-7.5,15.7-14.9,23.2-22.4,23.2
		c-12.4,0-23.2-5-34-14.9c-9.9-9.9-21.5-21.5-34-34c-24,0-44.7,0-60.5,0c-14.9,0-31.5,0.8-48.1,3.3c-1.7,8.3-2.5,14.1-4.1,19.9
		c-2.5,4.1-5.8,5.8-10.8,5.8c-5.8,0-12.4-1.7-17.4-5c-5-4.1-13.3-10.8-23.2-19.1c-9.9-8.3-18.2-17.4-24.9-27.3
		c-5.8-9.1-9.1-19.1-9.1-31.5c0-11.6-0.8-22.4-4.1-33.1s-7.5-19.9-11.6-29c-4.1-9.9-8.3-16.6-10.8-24c-4.1-6.6-8.3-13.3-14.1-23.2
		c-5-8.3-9.1-14.9-10.8-22.4c-3.3-6.6-4.1-13.3-4.1-20.7c0-5,9.1-14.9,27.3-27.3c18.2-10.8,34.8-17.4,48.1-17.4
		c1.7,0,4.1,3.3,7.5,10.8c17.4-4.1,33.1-8.3,46.4-11.6c13.3-3.3,25.7-5,37.3-6.6c-5-9.1-10.8-17.4-14.9-24.9
		c-4.1-6.6-5.8-14.1-5.8-21.5c0-5,1.7-15.7,5.8-32.3c3.3-16.6,5.8-29.8,6.6-41.4c-79.6,80.4-140.1,134.2-178.2,161.6
		c-38.1,29-77.1,43.9-115.2,43.9c-5,0-11.6-0.8-18.2-4.1c-7.5-2.5-14.1-3.3-16.6-3.3c46.4-32.3,89.5-67.1,130.1-105.2
		c40.6-37.3,77.1-76.2,108.6-115.2c-2.5,0.8-16.6,5.8-38.9,15.7c-23.2,9.9-37.3,14.9-43.9,14.9c-9.1,0-16.6-2.5-21.5-9.9
		c-5-7.5-9.9-15.7-15.7-27.3c-5-10.8-9.1-19.1-12.4-26.5c-2.5-7.5-2.5-14.9-0.8-23.2l3.3-2.5c5,0.8,14.1,2.5,25.7,5.8
		c11.6,4.1,20.7,6.6,25.7,6.6c5.8,0,20.7-3.3,45.6-8.3c24.9-5.8,43.1-9.9,53-10.8c-22.4-5.8-36.5-19.9-41.4-41.4
		c-5-21.5-9.1-47.2-11.6-78.7l5.8-1.7c27.3,18.2,49.7,35.6,63.8,52.2c13.3,18.2,20.7,36.5,20.7,58l34-8.3c0-29.8-0.8-53.9-4.1-71.3
		c-2.5-17.4-9.1-34-19.1-50.6c-10.8,3.3-23.2,5.8-36.5,8.3c-13.3,1.7-25.7,3.3-35.6,3.3c-8.3,0-16.6-1.7-23.2-2.5
		c-8.3-0.8-19.1-3.3-31.5-5.8c61.3-28.2,110.2-53,147.5-72.9c35.6-19.9,54.7-32.3,54.7-37.3c0-3.3-0.8-8.3-4.1-14.1
		c-3.3-6.6-4.1-10.8-4.1-11.6V481C776.1,484.3,807.6,488.4,833.3,495.1z M647.7,1081c3.3-1.7,11.6-4.1,24.9-8.3
		c12.4-4.1,23.2-7.5,29.8-10.8c-0.8-11.6-1.7-21.5-2.5-29c-1.7-7.5-3.3-12.4-4.1-14.1c-9.9,0-20.7,1.7-34.8,6.6
		c-13.3,5.8-23.2,7.5-30.7,8.3L647.7,1081z M679.1,1177.9l26.5-4.1c-0.8-7.5-1.7-18.2-1.7-32.3c-1.7-13.3-1.7-22.4-1.7-25.7
		c-5.8,0-14.1-0.8-25.7-1.7c-11.6-1.7-17.4-2.5-19.9-2.5L679.1,1177.9z M774.4,1008c4.1,0.8,5.8,4.1,5.8,8.3c0,3.3,0,8.3-0.8,14.9
		c-0.8,6.6-0.8,10.8-0.8,14.1c0.8-0.8,4.1-0.8,9.1-1.7c4.1,0,7.5,0,9.9,0c7.5,0,14.9,0.8,24,4.1c9.1,2.5,16.6,9.1,21.5,17.4
		c2.5-12.4,4.1-24.9,7.5-36.5c2.5-11.6,3.3-20.7,3.3-25.7c0-3.3-0.8-5-2.5-6.6c-1.7-0.8-4.1-0.8-5-0.8c-9.1,0-21.5,0.8-38.1,2.5
		s-34,5-53,8.3C762.8,1006.4,768.6,1007.2,774.4,1008z M767,887c-0.8,29.8-2.5,54.7-3.3,72.1c15.7-0.8,35.6-2.5,61.3-5.8
		c24.9-3.3,42.3-4.1,53-4.1L768.6,829C767.8,837.3,767.8,857.2,767,887z M770.3,1141.5c-1.7,10.8-1.7,19.1-1.7,26.5
		c2.5,0,8.3,0,18.2-1.7c9.1-0.8,17.4,0,24.9,1.7c4.1-10.8,8.3-20.7,12.4-32.3c2.5-11.6,6.6-24,12.4-39.8c-8.3,3.3-19.1,5.8-31.5,7.5
		c-12.4,3.3-24,4.1-34.8,4.1C770.3,1119.9,770.3,1131.5,770.3,1141.5z"/>
</g>
</svg>
